<svg width="19" height="16" viewBox="0 0 19 16" fill="none" xmlns="http://www.w3.org/2000/svg">
<path fill-rule="evenodd" clip-rule="evenodd" d="M17.143 6.85708H3.58288L7.73491 1.87419C8.13948 1.38962 8.0732 0.668472 7.58862 0.265041C7.1029 -0.139533 6.3829 -0.0732472 5.97947 0.411327L0.265145 7.26851C0.220573 7.32223 0.197716 7.38509 0.164572 7.44452C0.137144 7.49252 0.104001 7.53366 0.0834291 7.58623C0.0320002 7.71766 0.00114286 7.85595 0.00114286 7.99538L0 7.99995L0.00114286 8.00452C0.00114286 8.14395 0.0320002 8.28224 0.0834291 8.41366C0.104001 8.46624 0.137144 8.50738 0.164572 8.55538C0.197716 8.61481 0.220573 8.67767 0.265145 8.73138L5.97947 15.5886C6.20575 15.8594 6.53033 16 6.85719 16C7.11547 16 7.37491 15.9131 7.58862 15.7349C8.0732 15.3314 8.13948 14.6103 7.73491 14.1257L3.58288 9.14281H17.143C17.7738 9.14281 18.2858 8.63081 18.2858 7.99995C18.2858 7.36909 17.7738 6.85708 17.143 6.85708Z" fill="black"/>
</svg>
