<svg width="24" height="24" viewBox="0 0 24 24" fill="none" xmlns="http://www.w3.org/2000/svg">
<path fill-rule="evenodd" clip-rule="evenodd" d="M14.8279 12.0002L23.4135 3.41443C24.1955 2.63245 24.1955 1.36847 23.4135 0.586488C22.6316 -0.195496 21.3676 -0.195496 20.5856 0.586488L12 9.17231L3.41436 0.586488C2.63239 -0.195496 1.36844 -0.195496 0.586476 0.586488C-0.195492 1.36847 -0.195492 2.63245 0.586476 3.41443L9.17212 12.0002L0.586476 20.5861C-0.195492 21.3681 -0.195492 22.632 0.586476 23.414C0.976459 23.804 1.48844 24 2.00042 24C2.5124 24 3.02437 23.804 3.41436 23.414L12 14.8282L20.5856 23.414C20.9756 23.804 21.4876 24 21.9996 24C22.5116 24 23.0235 23.804 23.4135 23.414C24.1955 22.632 24.1955 21.3681 23.4135 20.5861L14.8279 12.0002Z" fill="#1B1947"/>
</svg>
