<svg width="12" height="22" viewBox="0 0 12 22" fill="none" xmlns="http://www.w3.org/2000/svg">
<g clip-path="url(#clip0)">
<path d="M2.77628 21.5138C2.77628 21.3133 2.77628 21.1081 2.77628 20.9041C2.77747 17.8671 2.77747 14.8313 2.77866 11.7944C2.77866 11.7381 2.77985 11.6818 2.77747 11.6255C2.77389 11.5341 2.72023 11.4907 2.63199 11.4872C2.56522 11.4848 2.49844 11.4872 2.43167 11.4872C1.72575 11.4872 1.01983 11.4883 0.315112 11.4872C0.0253532 11.4872 0.00150467 11.4661 0.00150467 11.187C0.000312246 10.1563 0.000312246 9.12562 0.00150467 8.09376C0.00150467 8.01168 0.0122365 7.9296 0.019391 7.82173C0.14698 7.81235 0.259068 7.7971 0.369964 7.7971C1.01864 7.79593 1.66613 7.7971 2.31481 7.79828C2.37204 7.79828 2.42928 7.79945 2.48652 7.79828C2.76554 7.79359 2.77866 7.77834 2.77866 7.51451C2.77866 7.17682 2.78105 6.84029 2.78462 6.50259C2.79535 5.5317 2.91937 4.57841 3.22582 3.65208C3.41184 3.08925 3.66225 2.5569 3.9842 2.0527C4.49694 1.24949 5.24936 0.768735 6.13653 0.46973C7.34326 0.0628495 8.59531 -0.0215754 9.86047 0.00187598C10.1371 0.00656625 10.4138 0.00304854 10.6892 0.0206371C10.9635 0.037053 11.0028 0.0851283 11.0028 0.345438C11.004 1.38551 11.0028 2.42557 11.0016 3.46681C11.0016 3.75878 10.9718 3.77637 10.6654 3.75995C10.2564 3.73885 9.84616 3.70719 9.43835 3.71891C8.99119 3.73064 8.54165 3.77989 8.1243 3.95343C7.44104 4.23836 6.99746 4.72967 6.94022 5.47425C6.88656 6.15551 6.88537 6.84029 6.86391 7.52272C6.86152 7.59542 6.87106 7.66929 6.87702 7.76896C6.96765 7.77952 7.04873 7.7971 7.12982 7.7971C8.30197 7.79828 9.47532 7.7971 10.6475 7.79593C10.6856 7.79593 10.7238 7.79359 10.7619 7.79593C10.9778 7.80648 11.0016 7.82994 11.0016 8.04803C11.0028 8.73164 11.0016 9.41642 11.0016 10.1C11.0016 10.4659 11.0028 10.8305 10.9992 11.1964C10.9968 11.4532 10.9658 11.4848 10.6987 11.4848C9.5254 11.486 8.35324 11.486 7.1799 11.486C7.08689 11.486 6.99507 11.486 6.86629 11.486C6.86629 14.8489 6.86629 18.1802 6.86629 21.4997C6.60157 21.5748 3.04338 21.5795 2.77628 21.5138Z" fill="#C4C4C4"/>
</g>
<defs>
<clipPath id="clip0">
<rect width="11.0013" height="21.56" fill="white"/>
</clipPath>
</defs>
</svg>
