<svg xmlns="http://www.w3.org/2000/svg" viewBox="0 0 157.85 62.82"><defs><style>.cls-1{fill:#bc0007;}.cls-2{fill:#004c97;}</style></defs><g id="Слой_2" data-name="Слой 2"><g id="Слой_1-2" data-name="Слой 1"><path class="cls-1" d="M7,49.27,2.12,45.75c2.19-5,4.93-8.56,10.63-8.82a4.94,4.94,0,0,0,3.31-2.24Q22.12,24.45,27.82,14c1.77-3.24,2.57-6.59-1.08-9.22,5.81-6.69,18.08-5.7,21.39,2.05,4,9.45,6.27,19.41,5.08,29.9-.84,7.46-.13,14.62,5.38,20.49a12.54,12.54,0,0,1,1.57,2.94c-6.21,4.16-10,3.36-13.88-2.43A61.77,61.77,0,0,0,39.66,49c-4.22-4.41-9.58-4.73-14.25-.82-3.17,2.66-6.42,5.52-8.64,8.94-3.4,5.21-8.41,5.41-13.52,5.66C-.3,63-.73,61,.94,58.32,2.87,55.27,5,52.31,7,49.27Zm16.7-11H42.17c-1.91-5.87-4.08-12.53-6.24-19.19l-1.7,0Q29,28.64,23.69,38.25Z"/><path class="cls-1" d="M111.34,8.84c1.72-2,2.88-4.6,4.78-5.35C127.51-1,139-1.71,150,4.77c7.05,4.19,9.18,10.34,7.11,18.3-2.9,11.13-9.21,19-21,21.22-1.8.33-3.86-.72-5.8-1.12,1.1-1.46,1.92-3.35,3.36-4.31,9.23-6.18,11.89-17.39,5.64-24.83a28.36,28.36,0,0,0-3-2.55c-3.53,12-7.09,23.42-10.2,34.94C124,54.21,121,60.72,112,62.31c-4.35.77-6.6-1-5.19-5.19C110.2,47,114,37,117.67,26.87c.73-2,1.47-4,2-6.1,1.77-6.5.64-8.44-5.78-10.4A16.62,16.62,0,0,1,111.34,8.84Z"/><path class="cls-2" d="M101.67,0c.32,4.3-2.73,5.21-5.44,5.9-9.6,2.45-15.73,8.72-19.71,17.43-3.62,8-3.47,16.2-1,24.32,2.2,7.35,9.27,9,14.86,3.89,9.86-9,11.48-18.83,5.31-30.94-1.08-2.12-3.77-4.26-.69-7,3.37-3,6.46-6.73,11.58-5.37,1.37.36,2.88,2.35,3.27,3.86,4.19,16.38-.87,35.33-15.72,45-9.88,6.39-20,6.11-29.94-.27-6.13-3.95-9-12.16-6.47-21C62.91,17.69,73.82,4.8,93,.46,95.69-.15,98.6.14,101.67,0Z"/></g></g></svg>