<svg width="19" height="23" viewBox="0 0 19 23" fill="none" xmlns="http://www.w3.org/2000/svg">
<path d="M4.09066 7.64727C4.52096 9.41727 5.24433 11.0526 6.21178 12.5801C7.57815 14.7362 9.34934 16.4636 11.5812 17.7189C11.6047 17.6644 11.6253 17.6179 11.644 17.5714C12.0311 16.5834 12.5418 15.6747 13.2995 14.9223C13.5426 14.6808 13.8082 14.4699 14.1287 14.3373C14.3434 14.2482 14.5463 14.2491 14.7551 14.3679C15.2167 14.6293 15.6235 14.9639 16.0146 15.3173C16.8036 16.03 17.5221 16.8062 18.0867 17.7169C18.3494 18.1406 18.5787 18.5821 18.6366 19.088C18.6562 19.2592 18.6434 19.4384 18.6199 19.6096C18.5954 19.7859 18.5072 19.9304 18.3641 20.0512C17.7211 20.5917 17.0967 21.1539 16.4439 21.6806C16.1371 21.9281 15.7931 22.137 15.4431 22.3191C14.6855 22.7131 13.9072 22.6507 13.1299 22.3636C12.3938 22.0924 11.7086 21.7182 11.0568 21.2856C9.92275 20.5333 8.78672 19.7839 7.68695 18.983C7.13315 18.5801 6.646 18.0792 6.151 17.5991C5.03556 16.5181 4.05635 15.3242 3.25358 13.9858C2.56157 12.8306 2.02345 11.6021 1.56473 10.3369C1.27851 9.54893 0.977596 8.7649 0.743332 7.96108C0.456139 6.97708 0.19247 5.98417 0.0415213 4.96553C-0.132951 3.78355 0.280686 2.8342 1.13247 2.04225C1.81957 1.40275 2.59098 0.882046 3.37414 0.377179C3.46922 0.316793 3.56724 0.259377 3.66134 0.197011C4.04263 -0.0564124 4.43372 -0.0574024 4.83168 0.149494C5.18356 0.332632 5.45801 0.608824 5.70796 0.910755C6.27157 1.59183 6.69207 2.36398 7.06748 3.15989C7.36349 3.7885 7.6301 4.43196 7.90847 5.06947C8.04864 5.3912 7.99669 5.69115 7.79281 5.96735C7.57521 6.26235 7.28018 6.46132 6.9675 6.63654C6.30685 7.00777 5.59524 7.24535 4.87088 7.44631C4.61898 7.51659 4.36413 7.57698 4.09066 7.64727Z" fill="#1B1947"/>
</svg>
