<svg width="28" height="22" viewBox="0 0 28 22" fill="none" xmlns="http://www.w3.org/2000/svg">
<path d="M0.0308035 19.1742C3.05112 19.3862 5.78336 18.6977 8.19852 16.9457C7.0154 16.7828 5.91925 16.4623 4.97347 15.7771C4.03494 15.0987 3.34826 14.2524 2.96053 13.1483C3.76679 13.1805 4.54044 13.2874 5.2996 12.9973C4.48246 12.7294 3.69251 12.4139 3.03663 11.8898C2.38437 11.3692 1.83538 10.7603 1.46215 10.0208C1.08891 9.27966 0.900478 8.50797 0.876924 7.61247C1.68138 7.96355 2.44054 8.1976 3.30297 8.17894C3.19063 8.0704 3.08374 7.95337 2.96415 7.85331C2.27385 7.27666 1.72667 6.61013 1.36974 5.80113C1.05267 5.0854 0.951214 4.34764 0.954837 3.57934C0.958461 2.77373 1.16682 2.02748 1.54549 1.31516C1.58897 1.23375 1.65239 1.16082 1.73936 1.0387C4.33027 3.89141 7.53902 5.7282 11.4489 6.43035C12.1755 6.56094 12.9111 6.71189 13.692 6.64744C13.692 6.54568 13.7029 6.47784 13.6902 6.41508C13.3985 4.97008 13.7119 3.63531 14.5725 2.42435C15.5582 1.03531 16.975 0.229703 18.7271 0.0414452C20.4755 -0.146813 22.059 0.302632 23.3545 1.4644C23.6226 1.70524 23.8962 1.68998 24.1933 1.61705C25.2025 1.36773 26.1773 1.03531 27.0868 0.548555C27.1321 0.52481 27.1883 0.519723 27.3242 0.48241C26.8694 1.6781 26.1157 2.57869 25.0811 3.2995C26.0994 3.29441 27.018 2.97386 27.9384 2.65331C27.9583 2.68045 27.9801 2.70589 28 2.73303C27.9239 2.83818 27.8532 2.94503 27.7735 3.04509C27.1503 3.83374 26.4273 4.53759 25.5848 5.12272C25.3203 5.30758 25.2406 5.51111 25.2533 5.813C25.2949 6.80178 25.1681 7.78038 24.9851 8.75559C24.6191 10.6975 23.8853 12.5072 22.8055 14.1947C21.7075 15.9094 20.3197 17.3866 18.6093 18.5925C16.6054 20.0053 14.3569 20.8957 11.9001 21.318C11.0485 21.4639 10.1843 21.5351 9.31099 21.5521C8.41051 21.569 7.51909 21.5487 6.62586 21.452C5.01695 21.279 3.47509 20.8804 2.00026 20.2597C1.36793 19.9934 0.76097 19.6746 0.143136 19.3778C0.0924048 19.354 0.0471075 19.3184 0 19.2879C0.00905914 19.2506 0.0199325 19.2132 0.0308035 19.1742Z" fill="#C4C4C4"/>
</svg>
