<svg width="37" height="22" viewBox="0 0 37 22" fill="none" xmlns="http://www.w3.org/2000/svg">
<path d="M21.6273 5.38912C21.6273 6.60668 21.6273 7.82544 21.6273 9.04301C21.6273 9.22312 21.6211 9.40323 21.6396 9.58214C21.7267 10.4395 22.2437 10.6952 22.9855 10.2366C23.5602 9.87993 24.028 9.40203 24.4591 8.89291C26.349 6.66072 27.7551 4.14394 28.9622 1.51189C29.5308 0.272712 29.9925 0.00374348 31.3716 0.0361638C32.4731 0.0625803 33.5759 0.0397662 34.6786 0.0433685C34.8812 0.0445692 35.0875 0.0505732 35.2877 0.080592C36.0736 0.200667 36.3499 0.575302 36.1891 1.33298C36.0294 2.08105 35.704 2.77148 35.3368 3.4415C34.0621 5.76615 32.5787 7.96473 31.0425 10.1297C30.0551 11.5202 30.0613 11.8288 31.32 13.0259C33.0061 14.6301 34.5939 16.3148 35.9693 18.1855C36.3278 18.673 36.6533 19.181 36.862 19.7489C37.2452 20.79 36.8215 21.4864 35.7015 21.5248C34.2328 21.5741 32.7617 21.5596 31.2917 21.5332C30.4727 21.5188 29.9115 20.9965 29.3859 20.4502C28.2671 19.2878 27.2233 18.0559 25.9965 16.9956C25.369 16.4529 24.7366 15.9161 23.9973 15.5211C23.7124 15.3698 23.4091 15.2341 23.0972 15.1512C22.1246 14.8943 21.6469 15.2461 21.6334 16.2355C21.6162 17.4339 21.6322 18.6322 21.6248 19.8294C21.6187 20.916 21.2847 21.2943 20.177 21.4456C17.8831 21.7578 15.7095 21.3195 13.6243 20.3925C11.1806 19.3058 9.12363 17.7088 7.4695 15.6592C4.45349 11.92 2.01711 7.85426 0.474726 3.31182C0.256139 2.66701 0.0805329 2.0102 0.0117641 1.33058C-0.0643728 0.58851 0.225439 0.139428 0.986808 0.0937999C2.65322 -0.00586259 4.32946 -0.0707032 5.99097 0.137027C6.78058 0.235489 7.01759 0.931925 7.23617 1.55512C7.80229 3.16172 8.46542 4.7263 9.24889 6.24165C10.1711 8.02597 11.1634 9.76946 12.5621 11.2512C12.7954 11.4985 13.0557 11.7339 13.3394 11.9224C14.0455 12.3907 14.5674 12.1409 14.646 11.3124C14.6755 10.9954 14.6743 10.6736 14.6755 10.3554C14.6792 8.61794 14.6669 6.88045 14.6829 5.14416C14.6939 3.9182 14.3623 2.82431 13.5408 1.87932C13.2215 1.51189 12.8985 1.12284 13.1798 0.589711C13.461 0.0565766 13.9694 0.0313609 14.4974 0.0325617C16.3972 0.0397662 18.2957 0.0337623 20.1954 0.0361638C21.2797 0.0373645 21.6113 0.353162 21.6211 1.43624C21.6334 2.75347 21.6236 4.07189 21.6236 5.39032C21.6248 5.38912 21.626 5.38912 21.6273 5.38912Z" fill="#C4C4C4"/>
</svg>
